# xmcd
#
# Track frame offsets:
#	150
#	15187
#	27740
#	45536
#	55717
#	68819
#	81082
#	101521
#	120653
#	129198
#	146465
#	162709
#
# Disc length: 2259 seconds
#
# Revision: 0
# Processed by: cddbd v1.5.2PL0 Copyright (c) Steve Scherf et al.
# Submitted via: EasyCDDAExtractor 9.0.0.1
#
DISCID=9708d10c
DTITLE=Michi THE Fritz - Die Vorhut
DYEAR=2010
DGENRE=Pop
TTITLE0=Attraktiv
TTITLE1=Endstation Realität
TTITLE2=Born to lose
TTITLE3=Hassliebe
TTITLE4=Menschenfresser
TTITLE5=Die Idee von...
TTITLE6=Tagessieger
TTITLE7=Unfair
TTITLE8=Eh okay
TTITLE9=He Emma
TTITLE10=A stinknormales Liebeslied
TTITLE11=Zwoa kloane Fiass
EXTD=
EXTT0=
EXTT1=
EXTT2=
EXTT3=
EXTT4=
EXTT5=
EXTT6=
EXTT7=
EXTT8=
EXTT9=
EXTT10=
EXTT11=
PLAYORDER=
